<svg width="144" height="144" viewBox="0 0 144 144" fill="none" xmlns="http://www.w3.org/2000/svg">
  <defs>
    <linearGradient id="grad" x1="0%" y1="0%" x2="100%" y2="100%">
      <stop offset="0%" style="stop-color:#1e293b;stop-opacity:1" />
      <stop offset="100%" style="stop-color:#475569;stop-opacity:1" />
    </linearGradient>
  </defs>
  <rect width="144" height="144" rx="29" fill="url(#grad)"/>
  <path d="M103 62H41m62 0a9 9 0 019 9v26a9 9 0 01-9 9H41a9 9 0 01-9-9V71a9 9 0 019-9m62 0V54a9 9 0 00-9-9M41 54a9 9 0 019-9m0 0V36a9 9 0 019-9h26a9 9 0 019 9v9M50 45h44" stroke="white" stroke-width="6" stroke-linecap="round" stroke-linejoin="round"/>
</svg>