<svg width="310" height="150" viewBox="0 0 310 150" fill="none" xmlns="http://www.w3.org/2000/svg">
  <defs>
    <linearGradient id="grad" x1="0%" y1="0%" x2="100%" y2="100%">
      <stop offset="0%" style="stop-color:#1e293b;stop-opacity:1" />
      <stop offset="100%" style="stop-color:#475569;stop-opacity:1" />
    </linearGradient>
  </defs>
  <rect width="310" height="150" rx="30" fill="url(#grad)"/>
  <path d="M221 65H89m132 0a9 9 0 019 9v28a9 9 0 01-9 9H89a9 9 0 01-9-9V74a9 9 0 019-9m132 0V56a9 9 0 00-9-9M89 56a9 9 0 019-9m0 0V38a9 9 0 019-9h28a9 9 0 019 9v9M98 47h114" stroke="white" stroke-width="6" stroke-linecap="round" stroke-linejoin="round"/>
</svg>