<svg width="180" height="180" viewBox="0 0 180 180" fill="none" xmlns="http://www.w3.org/2000/svg">
  <defs>
    <linearGradient id="grad" x1="0%" y1="0%" x2="100%" y2="100%">
      <stop offset="0%" style="stop-color:#1e293b;stop-opacity:1" />
      <stop offset="100%" style="stop-color:#475569;stop-opacity:1" />
    </linearGradient>
  </defs>
  <rect width="180" height="180" rx="40" fill="url(#grad)"/>
  <path d="M129 78H51m78 0a11 11 0 0111 11v33a11 11 0 01-11 11H51a11 11 0 01-11-11V89a11 11 0 0111-11m78 0V67a11 11 0 00-11-11M51 67a11 11 0 0111-11m0 0V45a11 11 0 0111-11h33a11 11 0 0111 11v11M62 56h56" stroke="white" stroke-width="8" stroke-linecap="round" stroke-linejoin="round"/>
</svg>