<svg width="32" height="32" viewBox="0 0 32 32" fill="none" xmlns="http://www.w3.org/2000/svg">
  <defs>
    <linearGradient id="grad" x1="0%" y1="0%" x2="100%" y2="100%">
      <stop offset="0%" style="stop-color:#1e293b;stop-opacity:1" />
      <stop offset="100%" style="stop-color:#475569;stop-opacity:1" />
    </linearGradient>
  </defs>
  <rect width="32" height="32" rx="8" fill="url(#grad)"/>
  <path d="M23 14H9m14 0a2 2 0 012 2v6a2 2 0 01-2 2H9a2 2 0 01-2-2v-6a2 2 0 012-2m14 0V12a2 2 0 00-2-2M9 12a2 2 0 012-2m0 0V8a2 2 0 012-2h6a2 2 0 012 2v2M11 10h10" stroke="white" stroke-width="1.5" stroke-linecap="round" stroke-linejoin="round"/>
</svg>