<svg width="16" height="16" viewBox="0 0 16 16" fill="none" xmlns="http://www.w3.org/2000/svg">
  <defs>
    <linearGradient id="grad" x1="0%" y1="0%" x2="100%" y2="100%">
      <stop offset="0%" style="stop-color:#1e293b;stop-opacity:1" />
      <stop offset="100%" style="stop-color:#475569;stop-opacity:1" />
    </linearGradient>
  </defs>
  <rect width="16" height="16" rx="4" fill="url(#grad)"/>
  <path d="M11.5 7H4.5m7 0a1 1 0 011 1v3a1 1 0 01-1 1h-7a1 1 0 01-1-1V8a1 1 0 011-1m7 0V6a1 1 0 00-1-1M4.5 6a1 1 0 011-1m0 0V4a1 1 0 011-1h3a1 1 0 011 1v1M5.5 5h5" stroke="white" stroke-width="0.75" stroke-linecap="round" stroke-linejoin="round"/>
</svg>